<mxfile host="app.diagrams.net" agent="Mozilla/5.0 (Macintosh; Intel Mac OS X 10_15_7) AppleWebKit/605.1.15 (KHTML, like Gecko) Version/14.1 Safari/605.1.15" version="24.7.14">
  <diagram name="Page-1" id="CMfa3rKsxl1aiKDrH3hd">
    <mxGraphModel dx="953" dy="551" grid="1" gridSize="10" guides="1" tooltips="1" connect="1" arrows="1" fold="1" page="1" pageScale="1" pageWidth="850" pageHeight="1100" math="0" shadow="0">
      <root>
        <mxCell id="0" />
        <mxCell id="1" parent="0" />
        <mxCell id="lXy3oPjWxW0w9IZj_Mt0-1" value="Start" style="strokeWidth=2;html=1;shape=mxgraph.flowchart.start_1;whiteSpace=wrap;" vertex="1" parent="1">
          <mxGeometry x="90" y="80" width="100" height="60" as="geometry" />
        </mxCell>
        <mxCell id="lXy3oPjWxW0w9IZj_Mt0-17" value="" style="edgeStyle=orthogonalEdgeStyle;rounded=0;orthogonalLoop=1;jettySize=auto;html=1;" edge="1" parent="1" source="lXy3oPjWxW0w9IZj_Mt0-2" target="lXy3oPjWxW0w9IZj_Mt0-11">
          <mxGeometry relative="1" as="geometry" />
        </mxCell>
        <mxCell id="lXy3oPjWxW0w9IZj_Mt0-2" value="else steak" style="strokeWidth=2;html=1;shape=mxgraph.flowchart.decision;whiteSpace=wrap;" vertex="1" parent="1">
          <mxGeometry x="475" y="230" width="100" height="100" as="geometry" />
        </mxCell>
        <mxCell id="lXy3oPjWxW0w9IZj_Mt0-9" value="" style="edgeStyle=orthogonalEdgeStyle;rounded=0;orthogonalLoop=1;jettySize=auto;html=1;" edge="1" parent="1" source="lXy3oPjWxW0w9IZj_Mt0-3" target="lXy3oPjWxW0w9IZj_Mt0-2">
          <mxGeometry relative="1" as="geometry" />
        </mxCell>
        <mxCell id="lXy3oPjWxW0w9IZj_Mt0-16" value="" style="edgeStyle=orthogonalEdgeStyle;rounded=0;orthogonalLoop=1;jettySize=auto;html=1;" edge="1" parent="1" source="lXy3oPjWxW0w9IZj_Mt0-3" target="lXy3oPjWxW0w9IZj_Mt0-10">
          <mxGeometry relative="1" as="geometry" />
        </mxCell>
        <mxCell id="lXy3oPjWxW0w9IZj_Mt0-3" value="if corn" style="strokeWidth=2;html=1;shape=mxgraph.flowchart.decision;whiteSpace=wrap;" vertex="1" parent="1">
          <mxGeometry x="340" y="230" width="100" height="100" as="geometry" />
        </mxCell>
        <mxCell id="lXy3oPjWxW0w9IZj_Mt0-7" value="" style="edgeStyle=orthogonalEdgeStyle;rounded=0;orthogonalLoop=1;jettySize=auto;html=1;" edge="1" parent="1" source="lXy3oPjWxW0w9IZj_Mt0-4" target="lXy3oPjWxW0w9IZj_Mt0-3">
          <mxGeometry relative="1" as="geometry" />
        </mxCell>
        <mxCell id="lXy3oPjWxW0w9IZj_Mt0-15" value="" style="edgeStyle=orthogonalEdgeStyle;rounded=0;orthogonalLoop=1;jettySize=auto;html=1;" edge="1" parent="1" source="lXy3oPjWxW0w9IZj_Mt0-4" target="lXy3oPjWxW0w9IZj_Mt0-12">
          <mxGeometry relative="1" as="geometry" />
        </mxCell>
        <mxCell id="lXy3oPjWxW0w9IZj_Mt0-4" value="if hotdog" style="strokeWidth=2;html=1;shape=mxgraph.flowchart.decision;whiteSpace=wrap;" vertex="1" parent="1">
          <mxGeometry x="210" y="230" width="100" height="100" as="geometry" />
        </mxCell>
        <mxCell id="lXy3oPjWxW0w9IZj_Mt0-8" value="" style="edgeStyle=orthogonalEdgeStyle;rounded=0;orthogonalLoop=1;jettySize=auto;html=1;" edge="1" parent="1" source="lXy3oPjWxW0w9IZj_Mt0-6" target="lXy3oPjWxW0w9IZj_Mt0-4">
          <mxGeometry relative="1" as="geometry" />
        </mxCell>
        <mxCell id="lXy3oPjWxW0w9IZj_Mt0-14" value="" style="edgeStyle=orthogonalEdgeStyle;rounded=0;orthogonalLoop=1;jettySize=auto;html=1;" edge="1" parent="1" source="lXy3oPjWxW0w9IZj_Mt0-6" target="lXy3oPjWxW0w9IZj_Mt0-13">
          <mxGeometry relative="1" as="geometry" />
        </mxCell>
        <mxCell id="lXy3oPjWxW0w9IZj_Mt0-6" value="if burger" style="strokeWidth=2;html=1;shape=mxgraph.flowchart.decision;whiteSpace=wrap;" vertex="1" parent="1">
          <mxGeometry x="70" y="230" width="100" height="100" as="geometry" />
        </mxCell>
        <mxCell id="lXy3oPjWxW0w9IZj_Mt0-10" value="CornCount = CornCount+1" style="shape=parallelogram;html=1;strokeWidth=2;perimeter=parallelogramPerimeter;whiteSpace=wrap;rounded=1;arcSize=12;size=0.23;" vertex="1" parent="1">
          <mxGeometry x="325" y="360" width="130" height="50" as="geometry" />
        </mxCell>
        <mxCell id="lXy3oPjWxW0w9IZj_Mt0-11" value="SteakCount = SteakCount+1" style="shape=parallelogram;html=1;strokeWidth=2;perimeter=parallelogramPerimeter;whiteSpace=wrap;rounded=1;arcSize=12;size=0.23;" vertex="1" parent="1">
          <mxGeometry x="460" y="360" width="130" height="50" as="geometry" />
        </mxCell>
        <mxCell id="lXy3oPjWxW0w9IZj_Mt0-12" value="HotdogCount = HotdogCount+1" style="shape=parallelogram;html=1;strokeWidth=2;perimeter=parallelogramPerimeter;whiteSpace=wrap;rounded=1;arcSize=12;size=0.23;" vertex="1" parent="1">
          <mxGeometry x="195" y="360" width="130" height="50" as="geometry" />
        </mxCell>
        <mxCell id="lXy3oPjWxW0w9IZj_Mt0-13" value="BurgerCount = BurgerCount+1" style="shape=parallelogram;html=1;strokeWidth=2;perimeter=parallelogramPerimeter;whiteSpace=wrap;rounded=1;arcSize=12;size=0.23;" vertex="1" parent="1">
          <mxGeometry x="55" y="360" width="130" height="50" as="geometry" />
        </mxCell>
      </root>
    </mxGraphModel>
  </diagram>
</mxfile>
